<?xml version="1.0" standalone="no"?>
<!DOCTYPE svg PUBLIC "-//W3C//DTD SVG 1.1//EN" "http://www.w3.org/Graphics/SVG/1.1/DTD/svg11.dtd" >
<!--
2013-9-30: Created.
-->
<svg>
<metadata>
Created by iconfont
</metadata>
<defs>

<font id="iconfont" horiz-adv-x="1024" >
  <font-face
    font-family="iconfont"
    font-weight="500"
    font-stretch="normal"
    units-per-em="1024"
    ascent="896"
    descent="-128"
  />
    <missing-glyph />
    
    <glyph glyph-name="dujia" unicode="&#58923;" d="M951.137017 71.435351 337.305771 71.435351c-26.206872 0-51.813063 16.57449-65.061808 42.012859L124.647393 399.188047c-16.575514 32.115442-56.007595 44.706201-88.196715 28.120454-32.084743-16.607236-44.699038-56.06183-28.078499-88.177272l147.722436-285.952684c22.557762-43.267433 59.392692-76.8022 102.214986-95.612615l-73.155137-62.911842c-22.819728-19.642362-25.39846-54.089919-5.777587-76.907601 10.80202-12.548804 26.01449-18.981307 41.352827-18.981307 12.610202 0 25.244964 4.345981 35.57524 13.18837l149.491733 128.58968 343.592452 0 149.510152-128.58968c10.310833-8.863878 22.966061-13.20986 35.538401-13.20986 15.335267 0 30.589692 6.433526 41.370223 18.98233 19.642362 22.817682 17.044188 57.265238-5.776563 76.887135l-53.365418 45.931099 34.471093 0c36.153408 0 65.447595 29.294187 65.447595 65.446571C1016.584612 42.143211 987.290425 71.435351 951.137017 71.435351zM951.137017-30.449108 838.496587-30.449108l112.612801-96.92347c5.172813-4.448312 8.296967-10.637268 8.80862-17.435091 0.51063-6.798846-1.65264-13.382798-6.093788-18.542308-4.866844-5.662977-11.92561-8.898671-19.386536-8.898671-4.295839 0-10.667967 1.075495-16.628726 6.199189l-157.660786 135.601374L395.037636-30.448084 237.38913-166.055598c-5.949502-5.094018-12.348236-6.17156-16.659425-6.17156-7.550976 0-14.429641 3.15997-19.36914 8.897647-9.166777 10.660804-7.953136 26.814716 2.716878 35.998889l108.064204 92.931552-42.166355 18.522865c-37.763069 16.587793-69.063959 45.859467-88.139409 82.425268L34.144146 352.444443c-9.233292 17.842367-2.213411 39.86187 15.641235 49.102325 5.216815 2.688225 10.844999 4.063549 16.678868 4.063549 13.709233 0 26.127054-7.559163 32.407084-19.727297l147.600663-285.748023c18.275225-35.090193 53.912887-57.70833 90.833775-57.70833l613.831246 0c20.093641 0 36.439934-16.346293 36.439934-36.437887S971.229634-30.449108 951.137017-30.449108zM299.853787 122.37451c7.623631-14.125719 22.343891-25.650193 38.389332-25.671683l556.50154-0.044002c0.023536 0 0.041956 0 0.064468 0 24.075325 0 43.61024 18.789948 43.630706 42.885739 0.023536 24.095791-19.470447 45.01524-43.564191 45.057195l-530.472723 1.364067-91.095741 169.611979c-11.418051 21.22951-37.917588 29.388331-59.09491 17.918092-21.217231-11.407817-29.167297-37.783535-17.769712-59.012022L299.853787 122.37451zM227.947084 347.947012c2.164293 1.172709 4.41045 1.744737 6.751774 1.744737 4.27128 0 9.945513-2.062985 13.059434-7.853875l99.271958-184.834682 547.768645-1.409093c7.677866-0.013303 14.641465-7.650237 14.632255-16.020882-0.00614-7.930623-6.29231-13.907755-14.623046-13.907755l-556.562938 0.044002c-3.460822 0.004093-9.387811 3.997034-12.865006 10.440793L221.983255 328.231995C218.197022 335.283598 220.865805 344.140313 227.947084 347.947012zM935.819147 503.682959l74.204026 40.712237c5.963829 3.270487 9.671267 9.556657 9.629311 16.361643 0 6.808056-3.709485 13.059434-9.673313 16.340153l-74.287937 40.509622C942.529989 599.827693 946.408319 580.623305 946.408319 560.46929 946.408319 540.444211 942.529989 521.375923 935.819147 503.682959zM979.447806 560.705674l-4.043083-2.217505c0.007163 0.660032 0.011256 1.322112 0.011256 1.982144 0 0.814552-0.00614 1.630127-0.016373 2.443655L979.447806 560.705674zM843.019601 710.0347l-40.712237 74.169233c-3.279696 5.956665-9.541307 9.67229-16.360619 9.67229-6.797823 0-13.059434-3.737114-16.318664-9.713222l-40.458457-74.233702c17.748223 6.827499 36.966936 10.703783 57.072857 10.703783C806.228673 720.612617 825.316403 716.777265 843.019601 710.0347zM786.011212 753.609125l2.185782-3.981684c-0.641613 0.007163-1.283226 0.011256-1.924839 0.01228-0.812505 0-1.62194-0.005117-2.433422-0.016373L786.011212 753.609125zM729.468428 410.884436l40.692794-74.17128c3.25616-5.954619 9.521864-9.69378 16.337083-9.67229 6.821359 0.021489 13.08297 3.739161 16.343223 9.714246l40.496319 74.27668c-17.744129-6.828522-36.939307-10.704806-57.095369-10.704806C766.218424 400.305497 747.128647 404.140849 729.468428 410.884436zM788.656459 371.335698l-2.196015-4.02671-2.205225 4.019547c0.606821-0.00614 2.01796-0.00921 2.01796-0.00921C787.069311 371.320349 787.862373 371.325465 788.656459 371.335698zM562.507836 543.87331l74.287937-40.519856c-6.839779 17.756409-10.717086 36.983309-10.717086 57.115835 0 20.004613 3.877307 39.093367 10.56666 56.742329l-74.179466-40.669258c-5.942339-3.269463-9.649777-9.553587-9.649777-16.361643C552.817126 553.375731 556.524564 547.122307 562.507836 543.87331zM597.082282 562.441201c-0.007163-0.657986-0.011256-1.313925-0.011256-1.970888 0-0.806365 0.005117-1.610684 0.016373-2.416026l-4.01443 2.189875L597.082282 562.441201zM786.24248 453.789619c58.905598 0 106.669438 47.764863 106.669438 106.680694 0 58.916854-47.76384 106.678648-106.669438 106.678648-58.924018 0-106.687858-47.761794-106.687858-106.678648C679.554622 501.553459 727.318462 453.789619 786.24248 453.789619zM786.24248 638.1413c42.823318 0 77.662801-34.842553 77.662801-77.670987 0-42.829458-34.839483-77.673034-77.662801-77.673034-42.832528 0-77.680197 34.843576-77.680197 77.673034C708.562283 603.298747 743.409952 638.1413 786.24248 638.1413z"  horiz-adv-x="1024" />

    
    <glyph glyph-name="jianpan" unicode="&#58897;" d="M288.672632 465.220836l-82.880639 0c-16.884552 0-30.699186 13.814634-30.699186 30.699186l0 56.787354c0 16.884552 13.814634 30.699186 30.699186 30.699186l82.880639 0c16.884552 0 30.699186-13.814634 30.699186-30.699186l0-56.787354C319.371818 479.03547 305.557184 465.220836 288.672632 465.220836zM465.184765 465.220836l-82.880639 0c-16.884552 0-30.699186 13.814634-30.699186 30.699186l0 56.787354c0 16.884552 13.814634 30.699186 30.699186 30.699186l82.880639 0c16.884552 0 30.699186-13.814634 30.699186-30.699186l0-56.787354C495.883951 479.03547 482.069317 465.220836 465.184765 465.220836zM641.695874 465.220836l-82.880639 0c-16.884552 0-30.699186 13.814634-30.699186 30.699186l0 56.787354c0 16.884552 13.814634 30.699186 30.699186 30.699186l82.880639 0c16.884552 0 30.699186-13.814634 30.699186-30.699186l0-56.787354C672.39506 479.03547 658.580426 465.220836 641.695874 465.220836zM818.206984 465.220836l-82.880639 0c-16.884552 0-30.699186 13.814634-30.699186 30.699186l0 56.787354c0 16.884552 13.814634 30.699186 30.699186 30.699186l82.880639 0c16.884552 0 30.699186-13.814634 30.699186-30.699186l0-56.787354C848.90617 479.03547 835.091536 465.220836 818.206984 465.220836zM308.370253 307.128215 225.489614 307.128215c-16.884552 0-30.699186 13.814634-30.699186 30.699186l0 56.787354c0 16.884552 13.814634 30.699186 30.699186 30.699186l82.880639 0c16.884552 0 30.699186-13.814634 30.699186-30.699186l0-56.787354C339.069439 320.942849 325.254805 307.128215 308.370253 307.128215zM471.750297 307.128215l-82.880639 0c-16.884552 0-30.699186 13.814634-30.699186 30.699186l0 56.787354c0 16.884552 13.814634 30.699186 30.699186 30.699186l82.880639 0c16.884552 0 30.699186-13.814634 30.699186-30.699186l0-56.787354C502.449483 320.942849 488.63485 307.128215 471.750297 307.128215zM635.130342 307.128215l-82.880639 0c-16.884552 0-30.699186 13.814634-30.699186 30.699186l0 56.787354c0 16.884552 13.814634 30.699186 30.699186 30.699186l82.880639 0c16.884552 0 30.699186-13.814634 30.699186-30.699186l0-56.787354C665.829528 320.942849 652.014894 307.128215 635.130342 307.128215zM798.510386 307.128215l-82.880639 0c-16.884552 0-30.699186 13.814634-30.699186 30.699186l0 56.787354c0 16.884552 13.814634 30.699186 30.699186 30.699186l82.880639 0c16.884552 0 30.699186-13.814634 30.699186-30.699186l0-56.787354C829.209572 320.942849 815.394938 307.128215 798.510386 307.128215zM763.733325 141.616624l-503.46665 0c-16.884552 0-30.699186 13.814634-30.699186 30.699186l0 36.839023c0 16.884552 13.814634 30.699186 30.699186 30.699186l503.46665 0c16.884552 0 30.699186-13.814634 30.699186-30.699186l0-36.839023C794.432511 155.431258 780.617877 141.616624 763.733325 141.616624zM512 864.953913c64.942081 0 127.924531-12.712533 187.199543-37.783535 57.268308-24.222681 108.706841-58.905598 152.886039-103.084797s78.863139-95.617731 103.084797-152.886039c25.071002-59.275012 37.783535-122.257461 37.783535-187.199543s-12.712533-127.924531-37.783535-187.199543c-24.222681-57.268308-58.905598-108.706841-103.084797-152.886039s-95.617731-78.863139-152.886039-103.084797c-59.275012-25.071002-122.257461-37.783535-187.199543-37.783535s-127.924531 12.712533-187.199543 37.783535c-57.268308 24.222681-108.706841 58.905598-152.886039 103.084797s-78.863139 95.617731-103.084797 152.886039c-25.071002 59.275012-37.783535 122.257461-37.783535 187.199543S43.757596 511.925554 68.828598 571.199543c24.222681 57.268308 58.905598 108.706841 103.084797 152.886039s95.617731 78.863139 152.886039 103.084797C384.074446 852.242404 447.057919 864.953913 512 864.953913M512 895.653099c-282.57782 0-511.653099-229.075279-511.653099-511.653099s229.075279-511.653099 511.653099-511.653099 511.653099 229.075279 511.653099 511.653099S794.57782 895.653099 512 895.653099L512 895.653099z"  horiz-adv-x="1024" />

    
    <glyph glyph-name="triangle-copy-copy-copy" unicode="&#58891;" d="M748.007 462.673l-236.018-235.966-235.993 235.966h472.014z"  horiz-adv-x="1024" />

    
    <glyph glyph-name="tuangou" unicode="&#58881;" d="M729.845 626.64 294.068 626.64l0-486.882 388.605 0 0.001 0c32.946-1.873 48.668 12.916 47.171 44.363L729.845 626.64zM698.4 479.507l-88.73 0 0-226.873c1.872-50.916-25.459-75.438-81.987-73.566l-33.135 0 0 37.063 30.888 0c22.837-1.871 33.318 10.297 31.447 36.502L556.883 479.507l-31.447 0c-22.462-129.162-87.419-225.001-194.864-287.523l0 37.063c39.685 32.947 71.226 70.01 94.625 111.191 23.397 41.182 39.402 87.604 48.015 139.269L325.516 479.507 325.516 516.01l231.367 0 0 79.182 52.788 0 0-79.182L698.4 516.01 698.4 479.507zM512.004 878.998c-273.385 0-495.006-221.615-495.006-494.999 0-273.381 221.616-494.997 495.002-494.997 273.383 0 495.002 221.615 495.002 494.997C1006.998 657.375 785.383 878.998 512.004 878.998zM700.644 103.258 236.788 103.258 236.788 664.829l550.339 0 0.001-475.649-0.001-0.004C788.999 130.023 760.173 101.385 700.644 103.258z"  horiz-adv-x="1024" />

    
    <glyph glyph-name="tip" unicode="&#58984;" d="M228.149699 684.261575c-11.667737 11.195993-30.560016 11.195993-42.211381 0-11.666714-11.195993-11.666714-29.317723 0-40.513716l42.211381-40.513716c11.650341-11.19497 30.54262-11.19497 42.192961 0 11.650341 11.161201 11.650341 29.318746 0 40.513716L228.149699 684.261575z m567.021127 0l-42.192961-40.513716c-11.666714-11.19497-11.666714-29.353538 0-40.513716 11.632945-11.19497 30.524201-11.19497 42.192961 0l42.192961 40.513716c11.667737 11.195993 11.667737 29.317723 0 40.513716-11.650341 11.195993-30.54262 11.195993-42.192961 0zM153.541467 457.411987h-59.686381c-16.496719 0-29.861098-12.80463-29.861098-28.619828 0-15.847943 13.364379-28.688389 29.861098-28.688389h59.668985c16.495696 0 29.861098 12.839423 29.861098 28.688389-0.001023 15.814174-13.365402 28.619828-29.843702 28.619828z m775.921925 0h-59.685358c-16.4783 0-29.843702-12.80463-29.843701-28.619828 0-15.847943 13.366426-28.688389 29.843701-28.688389h59.685358c16.479323 0 29.862121 12.839423 29.862121 28.688389 0 15.814174-13.382798 28.619828-29.862121 28.619828zM481.816049 787.050636v-57.306171c0-15.883759 13.365402-28.689413 29.844725-28.689412 16.4783 0 29.842679 12.805654 29.842679 28.689412V787.050636c0 15.815197-13.365402 28.619828-29.842679 28.619827-16.479323 0-29.844725-12.80463-29.844725-28.619827zM243.071549 385.793856c0-142.498458 120.230292-257.954003 268.589225-257.954003 148.341536 0 268.590248 115.454522 268.590248 257.954003 0 142.464689-120.248711 257.954003-268.590248 257.954003-148.358933 0-268.589225-115.489314-268.589225-257.954003zM451.955974-15.461901c0-15.814174 13.381775-28.688389 29.860075-28.688389h59.687404c16.4783 0 29.842679 12.874215 29.842678 28.688389 0 15.815197-13.365402 28.619828-29.842678 28.619828h-59.687404c-16.4783-0.001023-29.860075-12.80463-29.860075-28.619828z m-59.668985 85.960791c0-15.813151 13.365402-28.653597 29.843702-28.653597h179.059142c16.479323 0 29.842679 12.840446 29.842679 28.653597 0 15.84999-13.364379 28.65462-29.842679 28.65462H422.130691c-16.496719 0-29.843702-12.80463-29.843702-28.65462z m0 0"  horiz-adv-x="1024" />

    
    <glyph glyph-name="REPEAT-copy" unicode="&#58919;" d="M783.217 317.42c-0.123 0.225-0.328 0.369-0.451 0.573-0.553 1.004-1.352 1.782-2.068 2.662-0.901 1.126-1.761 2.273-2.867 3.154-0.799 0.655-1.72 1.065-2.621 1.597-2.323 1.474-5.081 2.484-8.043 2.83 3.414-0.721 3.127-0.434 2.738-0.332-0.717 0.184-1.393 0-2.089 0.102-0.899 0.152-1.934 0.239-2.99 0.239-1.876 0-3.687-0.274-5.397-0.785-0.42-0.13-0.993-0.048-1.546-0.273l-115.651-43.172c-7.839-2.99-13.307-10.446-13.307-19.18 0-11.308 9.167-20.475 20.475-20.475 2.575 0 5.039 0.475 7.308 1.343l75.39 28.133c-37.765-88.023-123.228-146.616-219.894-146.616-109.322 0-204.923 75.489-232.448 183.583-2.334 8.94-10.336 15.431-19.855 15.431-11.316 0-20.49-9.174-20.49-20.49 0-1.797 0.231-3.54 0.666-5.201 32.122-126.096 144.025-214.283 272.107-214.283 112.579 0 212.152 67.707 256.676 169.554l36.721-71.352c3.463-6.652 10.304-11.116 18.189-11.116 3.433 0 6.669 0.847 9.51 2.342 6.542 3.42 11.006 10.269 11.006 18.161 0 3.423-0.84 6.649-2.324 9.485l-58.744 114.084zM512.164 618.783c105.759 0 197.919-69.345 229.356-172.564 2.762-8.264 10.431-14.116 19.466-14.116 11.311 0 20.48 9.169 20.48 20.48 0 1.978-0.28 3.89-0.804 5.7-36.685 120.442-144.614 201.46-268.498 201.46-107.909 0-203.551-61.399-250.757-156.836l-33.526 70.41c-3.328 7.076-10.397 11.887-18.59 11.887-11.311 0-20.48-9.169-20.48-20.48 0-3.276 0.769-6.372 2.137-9.118l53.645-112.603c0.082-0.184 0.225-0.307 0.307-0.471 0.246-0.471 0.594-0.86 0.881-1.331 2.125-3.474 5.176-6.198 8.812-7.867-1.952 0.904-0.027-0.202 2.083-0.898 0.164-0.061 0.287-0.205 0.471-0.246l0.143-0.020c1.749-0.545 3.76-0.859 5.844-0.86l0.014 0c1.929 0.004 3.793 0.276 5.559 0.781l116.522 32.151c8.732 2.468 15.023 10.366 15.023 19.732 0 11.306-9.165 20.471-20.471 20.471-1.939 0-3.815-0.27-5.592-0.773l-77.27-21.326c39.977 82.944 122.327 136.438 215.245 136.438z"  horiz-adv-x="1024" />

    
    <glyph glyph-name="jipiao" unicode="&#58945;" d="M796.507963 809.552562C879.755966 892.736602 961.884613 918.385813 1004.64396 875.594485c42.759347-42.727365 7.675575-129.397394-69.815747-206.824753a9516.752997 9516.752997 0 0 1-170.269829-176.218399c-55.999713-59.485703 114.430024-472.175761 117.660162-492.45207 3.262119-20.276309 31.789671-43.015199-18.997047-93.769936-50.786718-50.8187-60.189297-37.738242-88.429015 3.773824-28.207736 41.512066-204.266228 379.333291-204.266228 379.333291l-204.618025-178.744943s20.532162-121.593894 26.001009-140.750848c5.436865-19.092992 12.408846-25.20147-23.890226-61.468559-36.26709-36.235108-58.014551-52.833538-81.55298-14.871426-23.538429 37.898149-93.482102 170.365773-93.482101 170.365773S56.358706 138.739328 27.735209 152.171584c-28.591515 13.368292-47.076857 29.966722 8.283224 85.326803 17.046172 17.01419 37.482389 29.391054 70.167544 23.986171 32.653173-5.404884 131.827993-26.096953 131.827993-26.096954l180.439965 210.694522S62.371239 635.253057 31.764886 650.668169C1.254477 666.0513-7.412526 697.105395 36.306267 740.760225c43.65483 43.65483 91.051503 12.216956 91.051503 12.216957l492.004329-115.35749s93.929844 88.684868 177.145864 171.868907v0.063963z"  horiz-adv-x="1024" />

    
    <glyph glyph-name="hanglixiang" unicode="&#59285;" d="M640 608h-256v-512h256v512z m64 0v-512h160c19.2 0 32 12.8 32 32v448c0 19.2-12.8 32-32 32h-160z m-384 0h-160c-19.2 0-32-12.8-32-32v-448c0-19.2 12.8-32 32-32h160v512z m0 64v32c0 54.4 41.6 96 96 96h192c54.4 0 96-41.6 96-96v-32h160c54.4 0 96-41.6 96-96v-448c0-54.4-41.6-96-96-96h-704c-54.4 0-96 41.6-96 96v448c0 54.4 41.6 96 96 96h160z m320 32c0 19.2-12.8 32-32 32h-192c-19.2 0-32-12.8-32-32v-32h256v32z"  horiz-adv-x="1024" />

    
    <glyph glyph-name="fangdajing" unicode="&#58903;" d="M936.378 12.595l0.132 0.288-247.992 249.094c48.824 59.145 76.898 132.65 79.2 207.522 4.591 91.188-30.124 185.383-92.828 251.912-53.56 58.066-128.875 97.096-206.551 107.118-15.08 2.11-30.52 3.164-45.9 3.164-76.874 0-151.794-25.676-210.938-72.235C142.946 706.954 95.621 628.15 81.655 543.28c-13.857-79.104 1.138-163.973 41.115-232.78 27.343-47.828 66.279-88.92 112.573-118.816 42.495-27.62 91.39-45.672 141.33-52.121 14.984-2.085 30.352-3.14 45.67-3.14 70.918 0 141.078 22.272 198.173 62.79l247.68-248.904 4.58-4.337 0.132 0.119c8.163-6.737 18.508-10.477 29.224-10.477 25.318 0 45.912 20.762 45.912 46.271-0.001 11.314-4.21 22.246-11.666 30.71m-251.383 339.74c-40.576-83.335-122.138-144.277-212.917-159.045-42.495-7.432-87.28-5.131-129.006 6.616-81.417 22.44-151.11 81.85-186.485 159.022-40.948 85.686-35.842 193.606 13.018 274.975 43.49 75.184 120.148 128 204.97 141.233l6.017 0.913c3.165 0.527 6.353 1.03 9.47 1.39a304.309 304.309 0 0 0 31.683 1.653c43.321 0 86.116-9.374 123.827-27.14 68.999-31.79 124.008-90.862 150.894-162.114 29.489-76.094 25.222-164.86-11.471-237.502"  horiz-adv-x="1024" />

    
    <glyph glyph-name="sangedian" unicode="&#58913;" d="M494.7 773.2c-217.6 0-393.9-176.4-393.9-393.9s176.4-393.9 393.9-393.9 393.9 176.4 393.9 393.9-176.3 393.9-393.9 393.9zM305.1 321.7c-31.8 0-57.6 25.8-57.6 57.6s25.8 57.6 57.6 57.6 57.6-25.8 57.6-57.6-25.8-57.6-57.6-57.6z m189.6 0c-31.8 0-57.6 25.8-57.6 57.6s25.8 57.6 57.6 57.6 57.6-25.8 57.6-57.6-25.8-57.6-57.6-57.6z m189.6 0c-31.8 0-57.6 25.8-57.6 57.6s25.8 57.6 57.6 57.6 57.6-25.8 57.6-57.6-25.7-57.6-57.6-57.6z"  horiz-adv-x="1024" />

    
    <glyph glyph-name="toggle" unicode="&#58892;" d="M832.2 631.4H192.3c-35.2 0-64 28.8-64 64s28.8 64 64 64h639.8c35.2 0 64-28.8 64-64 0.1-35.2-28.7-64-63.9-64zM832.2 318.1H196.1c-35.2 0-64 28.8-64 64s28.8 64 64 64h636.1c35.2 0 64-28.8 64-64s-28.8-64-64-64zM832.2-0.8999999999999773H192.3c-35.2 0-64 28.8-64 64s28.8 64 64 64h639.8c35.2 0 64-28.8 64-64 0.1-35.2-28.7-64-63.9-64z"  horiz-adv-x="1024" />

    
    <glyph glyph-name="shangchuan" unicode="&#58976;" d="M1024 310.857143H585.142857v-438.857143H438.857143V310.857143H0V457.142857h438.857143V896h146.285714v-438.857143h438.857143v-146.285714z"  horiz-adv-x="1024" />

    
    <glyph glyph-name="jiudian" unicode="&#58940;" d="M0-128h512V896H0v-1024z m315.968 897.408h128v-128h-128v128z m0-257.408h128v-128h-128V512z m0-254.592h128v-128h-128v128zM64 769.408h128v-128H64v128zM64 512h128v-128H64V512z m0-254.592h128v-128H64v128z m512 314.368h448v-58.624H576v58.624zM576-128h128V95.936h192V-128h128V442.624H576V-128z"  horiz-adv-x="1024" />

    
    <glyph glyph-name="duihao" unicode="&#58972;" d="M518.976753 896h-10.921975C223.428111 895.017022-1.277871 663.908032 0.005461 373.260627c1.174112-272.735367 234.303667-502.31528 508.991338-501.26404A512.022185 512.022185 0 0 1 518.976753 896z m-11.263287-956.382736a444.333246 444.333246 0 1 0 444.838387 442.831474 446.531293 446.531293 0 0 0-444.838387-442.858779z m213.483653 630.320827c-21.939517-23.618771-43.169106-48.234172-64.699049-72.358084a81900.408707 81900.408707 0 0 0-209.128515-233.184165c-50.800836 53.831684-98.379689 104.482343-146.190635 154.846299-19.700512 20.724447-41.694639 24.738273-55.975121 9.447509-19.345548-20.779057-9.556728-39.2645 6.826234-56.616788 55.101364-58.569091 109.861415-117.479493 165.263133-175.802839 21.229589-22.444659 40.220173-22.854233 60.27565-0.655319q147.665101 163.993454 294.579316 328.819708c14.935801 16.710622 19.52303 34.486136 3.167373 52.31626-14.253177 15.290765-36.479396 12.232612-54.118386-6.839886z"  horiz-adv-x="1024" />

    
    <glyph glyph-name="huochepiao" unicode="&#59051;" d="M349.4 27.1h322.8c9.9 0 18.1-8.2 18.1-18.1v-18.1c0-9.9-8.2-18.1-18.1-18.1H349.4c-9.9 0-18.1 8.2-18.1 18.1V9c0 9.9 8.2 18.1 18.1 18.1z m358.5 347c-29.7 0-53.9-24.7-53.9-55s24.2-55 53.9-55 53.9 24.7 53.9 55-24.2 55-53.9 55z m53.9 237.6c0 20.3-15.9 36.8-35.7 36.8H295.5c-19.8 0-35.7-16.5-35.7-36.8v-146.3c0-20.3 15.9-36.8 35.7-36.8H726c19.8 0 35.7 16.5 35.7 36.8V611.7zM313.1 264.1c29.7 0 53.9 24.7 53.9 55s-24.2 55-53.9 55-53.9-24.7-53.9-55c0.6-30.2 24.2-55 53.9-55z m539.5-323.3c-16.5-9.3-36.8-3.8-46.2 12.6l-73.7 129.8c-6-1.1-12.6-1.6-18.7-1.6H308.2c-6.6 0-12.6 0.5-18.7 1.6l-73.7-129.8c-9.3-16.5-30.2-22-46.2-12.6-16.5 9.3-22 30.8-12.6 47.3l68.7 121c-36.3 26.4-58.3 70.4-55 119.3l25.8 393.7c4.4 66 46.2 118.2 117.1 118.2h107.8c0 50.6 40.1 91.3 89.6 91.3s89.6-40.7 89.6-91.3H726c71.5 0 94.6-52.2 99-118.2l25.8-393.7c3.3-48.9-18.7-92.9-55-119.3l68.7-121c9.5-17 4-37.9-11.9-47.3z"  horiz-adv-x="1024" />

    
    <glyph glyph-name="jingqingqidai" unicode="&#59094;" d="M139.636-34.886h605.114v-46.569H139.636v46.57zM395.659 593.455V826.182h46.57v-232.727h-46.57z m-139.636 0V779.636h46.545v-186.181H256.023z m279.273 0V779.636h46.522v-186.181h-46.522zM884.363 477.068c0-244.201-197.934-442.182-442.181-442.182-244.201 0-442.182 197.98-442.182 442.182 0 15.546 2.374 45.242 2.49 45.149 65.955 0 810.403-0.652 878.615 0.14 3.095 0.046 3.258-29.627 3.258-45.29zM837.841 151.273a186.182 186.182 0 1 0 0 372.363 186.182 186.182 0 0 0 0-372.363z m0 325.795a139.636 139.636 0 1 1 0-279.25 139.636 139.636 0 1 1 0 279.25z"  horiz-adv-x="1024" />

    
    <glyph glyph-name="menpiao" unicode="&#58904;" d="M1253.831111 254.179556c40.391111-13.653333 67.584-51.768889 67.413333-94.492445v-186.936889c0-55.011556-44.600889-99.555556-99.669333-99.555555H143.758222a99.612444 99.612444 0 0 0-99.669333 99.555555v187.335111a99.612444 99.612444 0 0 0 66.673778 94.378667c17.92 5.802667 34.133333 15.701333 47.502222 28.899556a125.610667 125.610667 0 0 1 0 176.071111 122.197333 122.197333 0 0 1-47.502222 29.013333A99.84 99.84 0 0 0 44.088889 582.769778V769.706667c0 55.011556 44.600889 99.555556 99.669333 99.555555h1077.816889c55.068444 0 99.669333-44.544 99.669333-99.555555v-186.481778c0.113778-42.666667-27.022222-80.782222-67.470222-94.492445-18.204444-5.802667-34.702222-15.815111-48.241778-29.184a125.610667 125.610667 0 0 1 0-176.128c13.539556-13.368889 30.094222-23.438222 48.241778-29.240888z m-392.362667 308.622222H503.864889a51.086222 51.086222 0 1 1 0-102.172445h357.603555a51.086222 51.086222 0 1 1 0 102.172445z m0-280.974222H503.864889a51.086222 51.086222 0 1 1 0-102.172445h357.603555a51.086222 51.086222 0 1 1 0 102.172445z"  horiz-adv-x="1365" />

    
    <glyph glyph-name="email01" unicode="&#59214;" d="M765.1 644H262.6c-35.6 0-64.5-28.9-64.5-64.5v-393c0-35.6 28.9-64.5 64.5-64.5h502.5c35.6 0 64.5 28.9 64.5 64.5v393c0 35.6-28.9 64.5-64.5 64.5z m14.5-457.5c0-7.9-6.6-14.5-14.5-14.5H262.6c-7.9 0-14.5 6.6-14.5 14.5v393c0 7.9 6.6 14.5 14.5 14.5h502.5c7.9 0 14.5-6.6 14.5-14.5v-393zM700.6 528.4l-172-140c-9.3-7.5-22.6-7.5-31.8 0.2L327.3 529.2c-10.6 8.8-26.4 7.4-35.2-3.3-8.8-10.6-7.4-26.4 3.3-35.2l166.3-138.1c29.4-24.4 72-24.6 101.6-0.5l168.8 137.4c10.7 8.7 12.3 24.5 3.6 35.2-8.7 10.8-24.4 12.4-35.1 3.7z"  horiz-adv-x="1024" />

    
    <glyph glyph-name="youjiantou" unicode="&#58880;" d="M503.3096428 754.78857422c-199.9914077 0-362.09821702-162.10688173-362.09821702-362.09821702s162.10688173-362.09821702 362.09821702-362.098217 362.09821702 162.10688173 362.098217 362.098217-162.10688173 362.09821702-362.098217 362.09821702zM503.3096428 98.48555589c-162.49157488 0-294.20480132 131.71322644-294.20480133 294.20480131s131.71322644 294.20480132 294.20480133 294.20480133 294.20480132-131.71322644 294.20480131-294.20480133-131.71322644-294.20480132-294.20480131-294.20480131zM716.35918122 424.69078713l-181.0491085 181.04910851c-17.67495543 17.67495543-46.32597685 17.67495543-64.00085986 0s-17.67495543-46.32597685 0-64.00085985l103.78640145-103.78640146h-252.83508003c-25.00744433 0-45.26227713-20.25490522-45.26227712-45.26227713s20.25490522-45.26227713 45.26227712-45.26227712h252.83508003l-103.78640144-103.78640145c-17.67495543-17.67495543-17.67495543-46.32597685-1e-8-64.02352721 8.84881139-8.82614404 20.41328698-13.26184719 32.00042994-13.26184719s23.17428589 4.41310823 32.00042992 13.26184719l181.0491085 181.0491085c17.67495543 17.67495543 17.67495543 46.32597685 0 64.00085986z"  horiz-adv-x="1000" />

    
    <glyph glyph-name="guanbi" unicode="&#58907;" d="M512 896C229.325 896 0 666.675 0 384s229.325-512 512-512 512 229.325 512 512S794.675 896 512 896zM722.995 182.835c-10.675-10.675-29.67-10.675-40.55 0l-161.05 161.05-161.075-161.05c-10.675-10.675-29.645-10.675-40.525 0-10.675 10.65-10.675 29.645 0 40.525l161.05 161.075-160.41 160.41c-10.675 10.675-10.675 29.67 0 40.55 10.65 10.65 29.645 10.65 40.525 0L521.395 424.96l160.41 160.435c11.315 10.65 29.67 10.65 40.55 0 10.65-10.675 10.65-29.67 0-40.55L561.92 384.435 722.995 223.36c10.65-10.88 10.65-29.875 0-40.525z"  horiz-adv-x="1024" />

    
    <glyph glyph-name="toggle-copy" unicode="&#59215;" d="M832.2 631.4H192.3c-35.2 0-64 28.8-64 64s28.8 64 64 64h639.8c35.2 0 64-28.8 64-64 0.1-35.2-28.7-64-63.9-64zM832.2 318.1H196.1c-35.2 0-64 28.8-64 64s28.8 64 64 64h636.1c35.2 0 64-28.8 64-64s-28.8-64-64-64zM832.2-0.8999999999999773H192.3c-35.2 0-64 28.8-64 64s28.8 64 64 64h639.8c35.2 0 64-28.8 64-64 0.1-35.2-28.7-64-63.9-64z"  horiz-adv-x="1024" />

    
    <glyph glyph-name="fangdajing-copy" unicode="&#59216;" d="M936.378 12.595000000000027l0.132 0.288-247.992 249.094c48.824 59.145 76.898 132.65 79.2 207.522 4.591 91.188-30.124 185.383-92.828 251.912-53.56 58.066-128.875 97.096-206.551 107.118-15.08 2.11-30.52 3.164-45.9 3.164-76.874 0-151.794-25.676-210.938-72.235C142.946 706.954 95.621 628.15 81.655 543.28c-13.857-79.104 1.138-163.973 41.115-232.78 27.343-47.828 66.279-88.92 112.573-118.816 42.495-27.62 91.39-45.672 141.33-52.121 14.984-2.085 30.352-3.14 45.67-3.14 70.918 0 141.078 22.272 198.173 62.79l247.68-248.904 4.58-4.337 0.132 0.119c8.163-6.737 18.508-10.477 29.224-10.477 25.318 0 45.912 20.762 45.912 46.271-0.001 11.314-4.21 22.246-11.666 30.71m-251.383 339.74c-40.576-83.335-122.138-144.277-212.917-159.045-42.495-7.432-87.28-5.131-129.006 6.616-81.417 22.44-151.11 81.85-186.485 159.022-40.948 85.686-35.842 193.606 13.018 274.975 43.49 75.184 120.148 128 204.97 141.233l6.017 0.913c3.165 0.527 6.353 1.03 9.47 1.39a304.309 304.309 0 0 0 31.683 1.653c43.321 0 86.116-9.374 123.827-27.14 68.999-31.79 124.008-90.862 150.894-162.114 29.489-76.094 25.222-164.86-11.471-237.502"  horiz-adv-x="1024" />

    
    <glyph glyph-name="qitagongneng" unicode="&#59049;" d="M738.34 385.04l-223.5 223.5 223.5 223.5 223.5-223.5-223.5-223.5zM627.98 608.53l110.36-110.36L848.7 608.53 738.34 718.89 627.98 608.53zM478.99 418.88H99.68V798.19h379.31v-379.31z m-299.31 80h219.31V718.19H179.68v-219.31zM927.99-32.01H548.68V347.3h379.31v-379.31z m-299.31 80h219.31V267.3H628.68v-219.31zM478.99-32.01H99.68V347.3h379.31v-379.31z m-299.31 80h219.31V267.3H179.68v-219.31z"  horiz-adv-x="1024" />

    
    <glyph glyph-name="jiaoya-copy" unicode="&#59217;" d="M365.9 710.69999999c0.1-60.3-36.19999999-114.6-91.8-137.69999999-55.6-23.1-119.7-10.4-162.4 32.2-42.6 42.6-55.4 106.7-32.39999999 162.3 23 55.7 77.39999999 92 137.59999999 92 82.3-0.1 148.89999999-66.7 149-148.80000001zM567 785.1c0-30.09999999-18.1-57.3-45.9-68.9-27.8-11.6-59.9-5.2-81.2 16.1-21.3 21.3-27.7 53.3-16.2 81.2 11.5 27.8 38.7 46 68.8 46 41.1 0 74.5-33.3 74.5-74.5l0 0.1z m215.8-18.7c0-41.1-33.3-74.5-74.5-74.5-41.1 0-74.5 33.3-74.5 74.5 0 41.1 33.3 74.5 74.5 74.5 41.1 0 74.5-33.4 74.5-74.5z m175.10000001-96.7c0-41.1-33.3-74.5-74.50000001-74.5-41.1 0-74.5 33.3-74.5 74.5 0 41.1 33.3 74.5 74.5 74.5 41.2-0.1 74.5-33.4 74.50000001-74.5zM299.8 477.9s47.50000001 131.3 229 153.6c0 0 280.2 19.5 328.5-256.7 23.60000001-135 13.7-427.4-202.8-471.9-52.3-10.69999999-203.9 2.60000001-184.3 139.5 6.9 48.4 52.3 127.09999999 1e-8 195.5-36.2 47.50000001-217.8 61.4-170.50000002 240.2"  horiz-adv-x="1024" />

    
    <glyph glyph-name="xiaolian-copy" unicode="&#59286;" d="M512-57.81818174c244.02272695 0 441.81818174 197.79545479 441.81818174 441.81818174C953.81818174 628.02272695 756.02272695 825.81818174 512 825.81818174 267.97727305 825.81818174 70.18181826 628.02272695 70.18181826 384c0-244.02272695 197.79545479-441.81818174 441.81818174-441.81818174z m0 65.45454522a376.36363653 376.36363653 0 1 0 0 752.72727305 376.36363653 376.36363653 0 0 0 0-752.72727305zM296 224.49545479000005a305.46818174 305.46818174 0 0 1 432 0 32.72727305 32.72727305 0 1 1-46.30909131 46.26818173 240.01363652 240.01363652 0 0 0-339.38181738 0 32.72727305 32.72727305 0 1 1-46.30909131-46.26818173zM358.59090869 469.21363653m-51.13636348 0a51.13636347 51.13636347 0 1 1 102.27272784 0 51.13636347 51.13636347 0 1 1-102.27272784 0ZM665.40909131 469.21363653m-51.13636436 0a51.13636347 51.13636347 0 1 1 102.27272784 0 51.13636347 51.13636347 0 1 1-102.27272784 0Z"  horiz-adv-x="1024" />

    
    <glyph glyph-name="banben-copy" unicode="&#59287;" d="M512-102.39999999999998C243.7888-102.39999999999998 25.6 115.78880000000004 25.6 384S243.7888 870.4 512 870.4s486.4-218.1888 486.4-486.4-218.1888-486.4-486.4-486.4z m0 903.3216C282.112 800.9216 95.0784 613.8879999999999 95.0784 384S282.112-32.92160000000001 512-32.92160000000001 928.9216 154.11199999999997 928.9216 384 741.888 800.9216 512 800.9216zM710.1952 372.99199999999996a35.4816 35.4816 0 0 1-49.8688 0.0768l-113.5872-112.8192V593.152a34.7392 34.7392 0 1 1-69.4784 0v-334.7456L363.008 374.27200000000005a34.7136 34.7136 0 0 1-49.2032 0.256 34.944 34.944 0 0 1-0.2048-49.3824l173.0048-174.848a34.944 34.944 0 0 1 49.408-0.2816l0.0768 0.128c0.0256 0 0.0768 0 0.1024 0.0768l173.9264 173.3632a34.944 34.944 0 0 1 0.0768 49.408z"  horiz-adv-x="1024" />

    
    <glyph glyph-name="right-angle-copy" unicode="&#59288;" d="M356.51594247 383.66031315l403.41955067 403.42645486c16.95396364 16.9429169 16.95396364 44.44374273 0 61.38804048-16.9429169 16.95396364-44.44374273 16.95396364-61.38804048-1e-8l-434.11840383-434.1211655c-16.95810614-16.9429169-16.95810614-44.44374273 0-61.38804048l434.11978467-434.11978468c8.47422013-8.47836266 19.58446539-12.71892482 30.69332983-12.71892483s22.22049053 4.24056218 30.69332981 12.71892483c16.95810614 16.9429169 16.95810614 44.44374273 0 61.38804047l-403.42231233 403.4278357z"  horiz-adv-x="1024" />

    
    <glyph glyph-name="touxiang-copy" unicode="&#59289;" d="M414.989474 238.48421099999996c113.178947-88.926316 269.473684-88.926316 382.652631 0 207.494737-105.094737 237.136842-299.115789 242.526316-363.789474 110.484211 113.178947 169.768421 261.389474 169.768421 417.68421C1212.631579 626.526316 940.463158 896 606.315789 896S0 626.526316 0 292.37894700000004c0-161.684211 64.673684-309.894737 169.768421-417.68421 8.084211 61.978947 37.726316 258.694737 245.221053 363.789474z m191.326315 479.663157c132.042105 0 237.136842-105.094737 237.136843-237.136842 0-129.347368-107.789474-237.136842-237.136843-237.136842-132.042105 0-237.136842 105.094737-237.136842 237.136842s105.094737 237.136842 237.136842 237.136842zM606.315789 869.052632C924.294737 869.052632 1185.684211 610.357895 1185.684211 292.37894700000004c0-132.042105-43.115789-256-126.652632-358.4-21.557895 102.4-80.842105 242.526316-250.610526 326.063158l-16.168421 8.084211-10.778948-8.084211c-48.505263-40.421053-110.484211-61.978947-175.157895-61.978947-61.978947 0-123.957895 21.557895-175.157894 59.28421l-13.473684 10.778948-16.168422-8.084211c-169.768421-86.231579-229.052632-231.747368-250.610526-326.063158-80.842105 102.4-123.957895 229.052632-123.957895 358.4C26.947368 610.357895 285.642105 869.052632 606.315789 869.052632m0 26.947368C272.168421 896 0 626.526316 0 292.37894700000004c0-161.684211 64.673684-309.894737 169.768421-417.68421 5.389474 61.978947 37.726316 258.694737 245.221053 363.789474 56.589474-43.115789 123.957895-64.673684 191.326315-64.673685s134.736842 21.557895 191.326316 67.368421c207.494737-105.094737 237.136842-299.115789 242.526316-363.789473 110.484211 113.178947 169.768421 261.389474 169.768421 417.68421C1212.631579 626.526316 940.463158 896 606.315789 896zM606.315789 718.147368c132.042105 0 237.136842-105.094737 237.136843-237.136842 0-129.347368-107.789474-237.136842-237.136843-237.136842-132.042105 0-237.136842 105.094737-237.136842 237.136842s105.094737 237.136842 237.136842 237.136842m0 26.947369c-145.515789 0-264.084211-118.568421-264.08421-264.084211s118.568421-264.084211 264.08421-264.08421 264.084211 118.568421 264.084211 264.08421-118.568421 264.084211-264.084211 264.084211z"  horiz-adv-x="1212" />

    
    <glyph glyph-name="icon--copy" unicode="&#59290;" d="M268.02606186-38.30899283999997a117.44211993 117.44211993 0 0 0-117.28124029 117.2812403L150.74482157 689.0277525399999A117.44211993 117.44211993 0 0 0 268.02606186 806.30899284l488.02831609 0a117.44211993 117.44211993 0 0 0 117.2812403-117.2812403l0-609.97506528a117.44211993 117.44211993 0 0 0-117.2812403-117.28124029z m0 792.97562884a65.79976308 65.79976308 0 0 1-65.71932328-65.71932326l0-609.97506528a65.79976308 65.79976308 0 0 1 65.71932328-65.71932326l488.02831609 0a65.79976308 65.79976308 0 0 1 65.71932328 65.71932326L821.77370123 689.0277525399999a65.79976308 65.79976308 0 0 1-65.71932328 65.71932326zM318.94446042 358.17882159a25.82117841 25.82117841 0 1 0 0 51.56191701l386.11107916 0a25.82117841 25.82117841 0 1 0 0-51.56191701zM318.94446042 236.23207242a25.82117841 25.82117841 0 1 0 0 51.24015779l263.44037172 0a25.82117841 25.82117841 0 1 0 0-51.64235684zM318.94446042 480.52776979a25.82117841 25.82117841 0 1 0 0 51.64235684l386.11107916 0a25.82117841 25.82117841 0 1 0 0-51.64235684z"  horiz-adv-x="1024" />

    
    <glyph glyph-name="tuikuan-copy" unicode="&#59291;" d="M982.222 402.785l0.001 0.275c0 6.86-2.765 13.074-7.241 17.589-4.786 4.865-11.173 7.543-17.985 7.543h-0.057a25.003 25.003 0 0 1-17.633-7.244l-31.793-31.287-0.228 7.505C900.188 632.6379999999999 710.248 817.091 474.865 817.091c-238.807 0-433.09-194.284-433.09-433.089 0-238.807 194.284-433.089 433.09-433.089 127.191 0 247.643 56.326 330.481 154.54l0.237 0.284 0.295 0.222c3.02 2.276 5.353 4.913 7.129 8.059l0.287 0.426c0.151 0.193 0.313 0.38 0.479 0.563l0.187 0.387c1.898 3.935 2.82 7.653 2.82 11.367 0 14.624-11.9 26.522-26.524 26.522-8.831 0-16.827-4.59-21.935-12.593l-0.243-0.334c-72.906-87.591-179.779-137.824-293.212-137.824-210.342 0-381.469 171.125-381.469 381.469 0 210.339 171.125 381.462 381.469 381.462 210.34 0 381.468-171.124 381.468-381.462 0-0.799-0.042-1.585-0.085-2.37-0.031-0.575-0.062-1.146-0.071-1.725l-0.119-7.762-48.51 48.644c-4.769 4.768-11.122 7.395-17.884 7.395-6.73 0-13.058-2.608-17.821-7.344-9.826-9.825-9.851-25.843-0.05-35.701l78.724-78.938c4.705-4.705 10.923-7.333 17.541-7.421 0.259 0.062 0.56 0.097 0.867 0.098l0.347 0.011 0.415-0.102c0.549-0.132 1.097-0.278 1.644-0.429 1.505-0.404 2.925-0.786 4.212-0.786 6.642 0 12.923 2.578 17.682 7.258l81.45 80.151c4.643 4.541 7.529 10.865 7.545 17.861zM604.486 422.418H498.241v27.194l108.656 106.554 3.058 3.152-0.109 0.135 1.185 1.947c1.974 3.241 3.101 6.828 3.349 10.661 0.386 6.207-1.691 12.223-5.847 16.937-4.278 4.83-10.621 7.605-17.402 7.605-5.807 0-11.373-2.087-15.687-5.876l-100.085-98.699-105.81 103.841c-4.038 3.563-9.465 5.522-15.287 5.522-6.916 0-13.29-2.732-17.484-7.499-6.806-7.642-7.771-19.05-2.359-27.763l1.209-1.946-0.171-0.221 116.059-113.499v-28.05l-111.05-0.057v-0.409l-2.273-0.732c-9.666-3.118-16.162-12.027-16.162-22.166s6.496-19.046 16.162-22.163l2.273-0.733v-0.465h111.05v-47.467l-111.05-0.063v-0.38l-2.283-0.729c-9.679-3.085-16.181-11.991-16.181-22.162v-0.041c0-10.319 6.722-19.067 16.026-22.106l2.439-0.779v-0.468h111.05l0.057-109.66h0.411l0.733-2.273c3.118-9.667 12.022-16.162 22.163-16.162s19.046 6.496 22.165 16.162l0.733 2.273h0.466V281.49199999999996l111.051 0.095v0.433l2.271 0.733c9.453 3.094 16.161 11.835 16.161 22.143v0.055c0 12.828-10.42 23.265-23.234 23.265H498.247v47.469l111.051 0.095v0.434l2.273 0.733c9.453 3.094 16.161 11.835 16.161 22.143v0.053c-0.002 12.834-10.426 23.271-23.241 23.271z"  horiz-adv-x="1024" />

    
    <glyph glyph-name="fapiao-copy" unicode="&#59292;" d="M949.4 454.5h-93.2c-19.3 0-35.2 15.9-35.2 35.2 0 19.3 15.9 35.2 35.2 35.2h93.2c2.1 0 4.1 2.1 4.1 4.1V782.5c0 2.1-2.1 4.1-4.1 4.1H74.6c-2.1 0-4.1-2.1-4.1-4.1v-253.4c0-2.1 2.1-4.1 4.1-4.1h93.2c19.3 0 35.2-15.9 35.2-35.2s-15.9-35.2-35.2-35.2H74.6c-40.8-0.1-74.6 33-74.6 74.5V782.5c0 40.7 33.1 74.6 74.6 74.6h874.9c40.7 0 74.6-33.1 74.6-74.6v-253.4c-0.8-40.8-33.9-74.6-74.7-74.6zM852.8-90.29999999999995c-6.2 0-13.1 2.1-18.6 5.5l-149.8 92.5-154.7-93.2c-11-6.9-25.5-6.9-36.6 0L344.6 7l-155.4-93.2c-11-6.2-24.2-6.9-35.2-0.7-11 6.2-18 18-18 30.4V647.8c0 19.3 15.9 35.2 35.2 35.2h681.5c19.3 0 35.2-15.9 35.2-35.2v-704.3c0-13.1-6.9-24.9-18-31.1-5.4-0.6-11.6-2.7-17.1-2.7zM344.6 84.39999999999998c6.2 0 13.1-2.1 18.6-5.5l148.5-92.5 154.7 93.2c11 6.9 25.5 6.9 36.6 0l113.9-70.4V614H206.5v-606.9l120.1 71.8c5.5 4.1 11.7 5.5 18 5.5zM888 614H136c-19.3 0-35.2 15.9-35.2 35.2s15.9 35.2 35.2 35.2h752c19.3 0 35.2-15.9 35.2-35.2S907.3 614 888 614zM721.6 408.9H302.4c-19.3 0-35.2 15.9-35.2 35.2s15.9 35.2 35.2 35.2h419.1c19.3 0 35.2-15.9 35.2-35.2s-15.8-35.2-35.1-35.2z m0-159.5H302.4c-19.3 0-35.2 15.9-35.2 35.2 0 19.3 15.9 35.2 35.2 35.2h419.1c19.3 0 35.2-15.9 35.2-35.2 0.1-19.3-15.8-35.2-35.1-35.2z"  horiz-adv-x="1024" />

    
    <glyph glyph-name="gonglve-copy" unicode="&#59293;" d="M902.314-65.30899999999997H235.586c-96.055 0-173.925 77.856-173.925 173.923V659.373c0 96.064 77.871 173.937 173.925 173.937h666.729c9.931 0 19.512-1.308 28.985-2.913V-65.30999999999995h-28.986zM322.552 775.345v-347.477l75.865 57.159 69.076-46.639V775.345H322.552z m550.774 0H525.465v-434.094l-127.049 85.796-133.843-100.82V775.345h-43.65c-48.028 0-101.288-63.51-101.288-111.518v-481.535c18.832 32.274 67.222 42.262 115.95 42.262h637.741V775.345z m0-608.77H216.83c-59.943 0-89.619-38.989-93.919-70.242l-0.206 12.28v-19.914c0-48.025 62.902-96.03 110.929-96.03h639.691V166.57500000000005z"  horiz-adv-x="1024" />

    
    <glyph glyph-name="shoucang-copy" unicode="&#59294;" d="M772.458667-128c-14.421333 0-30.634667 4.266667-45.653334 12.117333l-214.442666 111.36-215.893334-111.189333a93.866667 93.866667 0 0 0-102.912 8.021333 106.154667 106.154667 0 0 0-38.4 101.461334l44.117334 237.738666L30.058667 395.093333a111.018667 111.018667 0 0 0-26.282667 104.618667l0.341333 1.28c12.288 38.229333 42.752 65.024 79.786667 70.229333l235.008 44.373334L424.469333 838.144C441.365333 873.386667 475.84 896 512.362667 896c37.973333 0 73.386667-23.466667 88.149333-58.538667L705.728 615.6800000000001l235.093333-42.666667c37.290667-5.546667 67.925333-33.365333 78.336-70.997333 11.605333-37.034667 2.133333-77.653333-24.490666-104.96l-0.597334-0.682667-168.704-164.949333 42.666667-238.08c6.826667-38.144-7.68-76.629333-38.144-100.608-16.213333-13.653333-36.522667-20.906667-57.429333-20.736zM512.448 75.77599999999995L740.288-42.66666699999996a47.36 47.36 0 0 1 19.626667-5.717333c8.192 0 15.701333 2.56 21.333333 7.424l0.938667 0.853333a43.349333 43.349333 0 0 1 16.469333 41.813334L752.661333 258.304l181.418667 177.408a44.117333 44.117333 0 0 1 9.984 43.946667l-0.512 1.621333a37.802667 37.802667 0 0 1-30.976 28.074667l-1.024 0.170666-250.965333 45.482667-112.981334 238.250667a39.253333 39.253333 0 0 1-35.413333 23.04 41.301333 41.301333 0 0 1-36.010667-24.490667L364.053333 555.178667l-252.330666-47.616c-15.36-1.962667-27.221333-12.544-32.682667-29.013334a49.578667 49.578667 0 0 1 11.349333-44.544l181.589334-175.701333-47.616-256.597333a44.373333 44.373333 0 0 1 16.384-41.728c6.314667-4.864 14.421333-7.594667 22.954666-7.594667a37.546667 37.546667 0 0 1 18.261334 4.608l0.853333 0.512 229.546667 118.272z"  horiz-adv-x="1024" />

    


  </font>
</defs>
</svg>
